<svg width="8" height="20" viewBox="0 0 8 20" fill="none" xmlns="http://www.w3.org/2000/svg">
<path d="M1.7145 4.20601L2.50469 3.40582V7.99691C2.50469 8.26219 2.61007 8.5166 2.79765 8.70419C2.98523 8.89177 3.23964 8.99715 3.50492 8.99715C3.7702 8.99715 4.02462 8.89177 4.2122 8.70419C4.39978 8.5166 4.50516 8.26219 4.50516 7.99691V3.40582L5.29535 4.20601C5.38833 4.29976 5.49896 4.37417 5.62085 4.42495C5.74274 4.47574 5.87347 4.50188 6.00552 4.50188C6.13756 4.50188 6.2683 4.47574 6.39018 4.42495C6.51207 4.37417 6.6227 4.29976 6.71568 4.20601C6.80944 4.11303 6.88385 4.0024 6.93463 3.88051C6.98541 3.75862 7.01155 3.62789 7.01155 3.49584C7.01155 3.3638 6.98541 3.23306 6.93463 3.11117C6.88385 2.98929 6.80944 2.87866 6.71568 2.78567L4.21509 0.285081C4.11997 0.194019 4.00779 0.122637 3.88501 0.0750313C3.64149 -0.0250104 3.36835 -0.0250104 3.12483 0.0750313C3.00205 0.122637 2.88988 0.194019 2.79475 0.285081L0.294161 2.78567C0.105813 2.97402 0 3.22948 0 3.49584C0 3.76221 0.105813 4.01766 0.294161 4.20601C0.482509 4.39436 0.737965 4.50017 1.00433 4.50017C1.27069 4.50017 1.52615 4.39436 1.7145 4.20601ZM5.29535 15.7888L4.50516 16.589V11.9979C4.50516 11.7326 4.39978 11.4782 4.2122 11.2906C4.02462 11.103 3.7702 10.9976 3.50492 10.9976C3.23964 10.9976 2.98523 11.103 2.79765 11.2906C2.61007 11.4782 2.50469 11.7326 2.50469 11.9979V16.589L1.7145 15.7888C1.62124 15.6955 1.51052 15.6215 1.38867 15.571C1.26682 15.5206 1.13622 15.4946 1.00433 15.4946C0.872439 15.4946 0.74184 15.5206 0.619989 15.571C0.498138 15.6215 0.387422 15.6955 0.294161 15.7888C0.2009 15.882 0.126922 15.9927 0.0764494 16.1146C0.0259771 16.2364 0 16.367 0 16.4989C0 16.6308 0.0259771 16.7614 0.0764494 16.8833C0.126922 17.0051 0.2009 17.1158 0.294161 17.2091L2.79475 19.7097C2.88988 19.8008 3.00205 19.8721 3.12483 19.9197C3.24456 19.9727 3.37402 20 3.50492 20C3.63582 20 3.76528 19.9727 3.88501 19.9197C4.00779 19.8721 4.11997 19.8008 4.21509 19.7097L6.71568 17.2091C6.90403 17.0207 7.00985 16.7653 7.00985 16.4989C7.00985 16.2326 6.90403 15.9771 6.71568 15.7888C6.52734 15.6004 6.27188 15.4946 6.00552 15.4946C5.73915 15.4946 5.4837 15.6004 5.29535 15.7888Z" fill="white"/>
</svg>
