<svg width="8" height="20" viewBox="0 0 8 20" fill="none" xmlns="http://www.w3.org/2000/svg">
<path d="M1.7145 4.20601L2.50469 3.40582V7.99692C2.50469 8.2622 2.61007 8.51661 2.79765 8.70419C2.98523 8.89177 3.23965 8.99715 3.50493 8.99715C3.77021 8.99715 4.02462 8.89177 4.2122 8.70419C4.39978 8.51661 4.50516 8.2622 4.50516 7.99692V3.40582L5.29535 4.20601C5.38834 4.29977 5.49896 4.37418 5.62085 4.42496C5.74274 4.47574 5.87348 4.50188 6.00552 4.50188C6.13756 4.50188 6.2683 4.47574 6.39019 4.42496C6.51208 4.37418 6.6227 4.29977 6.71569 4.20601C6.80944 4.11303 6.88385 4.0024 6.93463 3.88051C6.98541 3.75863 7.01156 3.62789 7.01156 3.49585C7.01156 3.3638 6.98541 3.23307 6.93463 3.11118C6.88385 2.98929 6.80944 2.87866 6.71569 2.78568L4.21509 0.285081C4.11997 0.194019 4.0078 0.122637 3.88502 0.0750314C3.6415 -0.0250105 3.36835 -0.0250105 3.12483 0.0750314C3.00205 0.122637 2.88988 0.194019 2.79476 0.285081L0.294161 2.78568C0.105813 2.97403 0 3.22948 0 3.49585C0 3.76221 0.105813 4.01767 0.294161 4.20601C0.48251 4.39436 0.737965 4.50018 1.00433 4.50018C1.2707 4.50018 1.52615 4.39436 1.7145 4.20601ZM5.29535 15.7888L4.50516 16.589V11.9979C4.50516 11.7326 4.39978 11.4782 4.2122 11.2906C4.02462 11.103 3.77021 10.9976 3.50493 10.9976C3.23965 10.9976 2.98523 11.103 2.79765 11.2906C2.61007 11.4782 2.50469 11.7326 2.50469 11.9979V16.589L1.7145 15.7888C1.62124 15.6955 1.51052 15.6215 1.38867 15.5711C1.26682 15.5206 1.13622 15.4946 1.00433 15.4946C0.87244 15.4946 0.74184 15.5206 0.619989 15.5711C0.498138 15.6215 0.387422 15.6955 0.294161 15.7888C0.200901 15.882 0.126922 15.9927 0.0764495 16.1146C0.0259771 16.2365 0 16.3671 0 16.4989C0 16.6308 0.0259771 16.7614 0.0764495 16.8833C0.126922 17.0051 0.200901 17.1158 0.294161 17.2091L2.79476 19.7097C2.88988 19.8008 3.00205 19.8722 3.12483 19.9198C3.24456 19.9727 3.37402 20 3.50493 20C3.63583 20 3.76529 19.9727 3.88502 19.9198C4.0078 19.8722 4.11997 19.8008 4.21509 19.7097L6.71569 17.2091C6.90404 17.0208 7.00985 16.7653 7.00985 16.4989C7.00985 16.2326 6.90404 15.9771 6.71569 15.7888C6.52734 15.6004 6.27189 15.4946 6.00552 15.4946C5.73916 15.4946 5.4837 15.6004 5.29535 15.7888Z" fill="#5555FF"/>
</svg>
